<svg width="37" height="37" viewBox="0 0 37 37" fill="none" xmlns="http://www.w3.org/2000/svg">
<path d="M18.4545 24.875C21.9773 24.875 24.8608 21.9915 24.875 18.4545C24.8892 14.9176 21.9773 12.0341 18.4545 12.0341C14.9034 12.0341 12.0199 14.9176 12.0341 18.4545C12.0483 21.9915 14.9034 24.875 18.4545 24.875ZM6.92046 32.2614L13.0568 26.125L10.7841 23.8523L4.64773 29.9886L6.92046 32.2614ZM29.9886 32.2614L32.2614 29.9886L26.125 23.8523L23.8523 26.125L29.9886 32.2614ZM10.7841 13.0568L13.0568 10.7841L6.92046 4.64773L4.64773 6.92045L10.7841 13.0568ZM26.125 13.0568L32.2614 6.92045L29.9886 4.64773L23.8523 10.7841L26.125 13.0568ZM16.8494 36.3523H20.0597V27.7159H16.8494V36.3523ZM0.556821 20.0597H9.19318V16.8494H0.556821V20.0597ZM27.7159 20.0597H36.3523V16.8494H27.7159V20.0597ZM16.8494 9.19318H20.0597V0.556818H16.8494V9.19318Z" fill="black"/>
</svg>
